<svg xmlns="http://www.w3.org/2000/svg" width="96" height="58"><path fill="#61C5BA" d="M3.875 48.859c0 .263-.052.51-.158.741a2.05 2.05 0 0 1-.415.603 1.877 1.877 0 0 1-.613.405 1.885 1.885 0 0 1-.732.149 2.03 2.03 0 0 1-.75-.139 1.86 1.86 0 0 1-.624-.395 1.997 1.997 0 0 1-.425-.593A1.696 1.696 0 0 1 0 48.898c0-.263.053-.51.158-.741a1.96 1.96 0 0 1 1.048-1.009 1.934 1.934 0 0 1 1.483 0c.237.1.442.231.613.396.171.165.31.362.415.593.106.23.158.471.158.722Zm0 6.347c0 .263-.052.51-.158.741a1.92 1.92 0 0 1-.415.593 1.963 1.963 0 0 1-.613.396 1.885 1.885 0 0 1-.732.148 2.05 2.05 0 0 1-.75-.138 1.86 1.86 0 0 1-.624-.396 1.997 1.997 0 0 1-.425-.593A1.696 1.696 0 0 1 0 55.225c0-.263.053-.51.158-.741a1.96 1.96 0 0 1 1.048-1.008 1.934 1.934 0 0 1 1.483 0c.237.098.442.23.613.395.171.165.31.362.415.593.106.23.158.478.158.742Zm7.53-6.347c0 .263-.052.51-.157.741-.106.23-.244.432-.416.603a1.877 1.877 0 0 1-.613.405 1.885 1.885 0 0 1-.731.149c-.264 0-.514-.046-.752-.139a1.86 1.86 0 0 1-.622-.395 1.997 1.997 0 0 1-.425-.593 1.696 1.696 0 0 1-.159-.732c0-.263.053-.51.159-.741a1.96 1.96 0 0 1 1.047-1.009 1.934 1.934 0 0 1 1.483 0c.238.1.442.231.613.396.172.165.31.362.416.593.105.23.158.471.158.722Zm0 6.347c0 .263-.052.51-.157.741a1.92 1.92 0 0 1-.416.593 1.963 1.963 0 0 1-.613.396 1.885 1.885 0 0 1-.731.148c-.264 0-.514-.046-.752-.138a1.86 1.86 0 0 1-.622-.396 1.997 1.997 0 0 1-.425-.593 1.696 1.696 0 0 1-.159-.732c0-.263.053-.51.159-.741a1.96 1.96 0 0 1 1.047-1.008 1.934 1.934 0 0 1 1.483 0c.238.098.442.23.613.395.172.165.31.362.416.593.105.23.158.478.158.742"/><path fill="#F8FAFC" d="M29.08 11.736c0 2.226-.415 4.1-1.246 5.626a10.192 10.192 0 0 1-3.357 3.688c-1.408.933-3.033 1.615-4.874 2.046-1.841.43-3.754.646-5.74.646H9.26v14.374H0V0h14.08c2.094 0 4.052.206 5.875.62 1.823.412 3.412 1.076 4.766 1.991 1.353.915 2.418 2.118 3.195 3.607.776 1.49 1.164 3.329 1.164 5.518Zm-9.26.054c0-.897-.18-1.633-.542-2.207a3.764 3.764 0 0 0-1.462-1.346 6.299 6.299 0 0 0-2.085-.646 17.526 17.526 0 0 0-2.41-.162h-4.06v8.991h3.898c.866 0 1.697-.072 2.491-.215a6.712 6.712 0 0 0 2.139-.754 4.05 4.05 0 0 0 1.49-1.427c.36-.592.54-1.337.54-2.234Zm29.462 9.852c0-1.4-.443-2.602-1.327-3.607-.885-1.005-2.211-1.507-3.98-1.507-.867 0-1.661.134-2.383.404a6.18 6.18 0 0 0-1.895 1.103 5.463 5.463 0 0 0-1.3 1.642 4.785 4.785 0 0 0-.542 1.965h11.427Zm8.177 3.392v1.077a9 9 0 0 1-.055 1.023H37.855c.073.753.298 1.435.677 2.045.38.61.867 1.14 1.462 1.588a7.096 7.096 0 0 0 2.004 1.05 7.11 7.11 0 0 0 2.302.377c1.408 0 2.599-.26 3.574-.78.974-.52 1.769-1.194 2.382-2.02l6.174 3.877c-1.264 1.83-2.934 3.239-5.01 4.226-2.075.987-4.485 1.48-7.229 1.48-2.021 0-3.935-.313-5.74-.942-1.805-.628-3.384-1.543-4.738-2.745-1.354-1.203-2.419-2.683-3.195-4.442-.776-1.758-1.164-3.768-1.164-6.03 0-2.189.379-4.172 1.137-5.948.758-1.777 1.787-3.284 3.086-4.523 1.3-1.238 2.834-2.198 4.603-2.88 1.77-.682 3.683-1.023 5.74-1.023 1.986 0 3.81.332 5.47.996a11.909 11.909 0 0 1 4.278 2.88c1.191 1.257 2.12 2.782 2.789 4.577.668 1.794 1.002 3.84 1.002 6.137Zm23.253-6.514a6.953 6.953 0 0 0-1.164-.216c-.38-.036-.75-.053-1.11-.053-1.192 0-2.194.215-3.006.646-.812.43-1.462.95-1.95 1.56a5.903 5.903 0 0 0-1.055 1.993c-.217.718-.325 1.346-.325 1.884v13.782H63.22v-26.81h8.556v3.876h.108a8.717 8.717 0 0 1 2.924-3.338c1.264-.861 2.726-1.292 4.387-1.292.36 0 .713.018 1.056.054.343.036.622.09.839.161l-.38 7.753Zm6.287 19.596V0h8.99v38.116h-8.99"/><text fill="#61C5BA" font-family="AvenirNext-Bold, Avenir Next" font-size="14" font-weight="bold" letter-spacing="2.1"><tspan x="16" y="57">PLAY</tspan></text></svg>
